<svg height="512" viewBox="0 0 64 64" width="512" xmlns="http://www.w3.org/2000/svg">
    <defs>
		<linearGradient id="grad1" x1="0%" y1="100%" x2="0%" y2="0%">
		<stop offset="0%" style="stop-color:#EB487F;stop-opacity:1" />
		<stop offset="100%" style="stop-color:#B43AC3;stop-opacity:1" />
		</linearGradient>
	</defs>

    <g id="Server-Cloud-Network-Configuration-Setting">
        <path style="fill:url(#grad1);" d="m45 18c-8.45 0-17 2.06-17 6v8c0 3.94 8.55 6 17 6 5.97 0 11.98-1.04 15-3.03v5.03c0 1.63-5.84 4-15 4a46.58 46.58 0 0 1 -6.85-.49l-.3 1.98a47.929 47.929 0 0 0 7.15.51c5.97 0 11.98-1.04 15-3.03v5.03c0 1.63-5.84 4-15 4a45.556 45.556 0 0 1 -7.82-.65l-.36 1.96a46.724 46.724 0 0 0 8.18.69c8.45 0 17-2.06 17-6v-24c0-3.94-8.55-6-17-6zm15 14c0 1.63-5.84 4-15 4s-15-2.37-15-4v-5.03c3.02 1.99 9.03 3.03 15 3.03s11.98-1.04 15-3.03zm-15-4c-9.16 0-15-2.37-15-4s5.84-4 15-4 15 2.37 15 4-5.84 4-15 4z"/>
        <path style="fill:url(#grad1);" d="m56 30h2v2h-2z"/>
        <path style="fill:url(#grad1);" d="m52 31h2v2h-2z"/>
        <path style="fill:url(#grad1);" d="m48 32h2v2h-2z"/>
        <path style="fill:url(#grad1);" d="m56 38h2v2h-2z"/>
        <path style="fill:url(#grad1);" d="m52 39h2v2h-2z"/>
        <path style="fill:url(#grad1);" d="m48 40h2v2h-2z"/>
        <path style="fill:url(#grad1);" d="m56 46h2v2h-2z"/>
        <path style="fill:url(#grad1);" d="m52 47h2v2h-2z"/>
        <path style="fill:url(#grad1);" d="m48 48h2v2h-2z"/>
        <path style="fill:url(#grad1);" d="m39 23h12v2h-12z"/>
        <path style="fill:url(#grad1);" d="m33 13h2v2h-2z"/>
        <path style="fill:url(#grad1);" d="m29 13h2v2h-2z"/>
        <path style="fill:url(#grad1);" d="m11 31h15v-2h-15a7 7 0 1 1 .05-14 1 1 0 0 0 .995-1.1c-.029-.3-.045-.6-.045-.9a8.994 8.994 0 0 1 16.565-4.862 1 1 0 0 0 1.274.36 4.941 4.941 0 0 1 2.161-.498 5.006 5.006 0 0 1 5 5 4.949 4.949 0 0 1 -.083.879 1 1 0 0 0 .873 1.169 6.947 6.947 0 0 1 3.837 1.7l1.322-1.5a8.939 8.939 0 0 0 -3.949-2.022c0-.076 0-.151 0-.226a7.008 7.008 0 0 0 -7-7 6.9 6.9 0 0 0 -2.232.369 10.994 10.994 0 0 0 -19.768 6.631v.055a9 9 0 0 0 1 17.945z"/>
        <path style="fill:url(#grad1);" d="m35.142 45.01-2.682-.383a10.96 10.96 0 0 0 -.678-1.639l1.624-2.166a1 1 0 0 0 -.093-1.307l-2.828-2.828a1 1 0 0 0 -1.307-.093l-2.166 1.624a10.96 10.96 0 0 0 -1.639-.678l-.383-2.682a1 1 0 0 0 -.99-.858h-4a1 1 0 0 0 -.99.858l-.383 2.682a10.96 10.96 0 0 0 -1.639.678l-2.166-1.624a1 1 0 0 0 -1.307.093l-2.828 2.828a1 1 0 0 0 -.093 1.307l1.624 2.166a10.96 10.96 0 0 0 -.678 1.639l-2.682.383a1 1 0 0 0 -.858.99v4a1 1 0 0 0 .858.99l2.682.383a10.96 10.96 0 0 0 .678 1.639l-1.624 2.166a1 1 0 0 0 .093 1.307l2.828 2.828a1 1 0 0 0 1.307.093l2.166-1.624a10.96 10.96 0 0 0 1.639.678l.383 2.682a1 1 0 0 0 .99.858h4a1 1 0 0 0 .99-.858l.383-2.682a10.96 10.96 0 0 0 1.639-.678l2.166 1.624a1 1 0 0 0 1.307-.093l2.828-2.828a1 1 0 0 0 .093-1.307l-1.624-2.166a10.96 10.96 0 0 0 .678-1.639l2.682-.383a1 1 0 0 0 .858-.99v-4a1 1 0 0 0 -.858-.99zm-1.142 4.123-2.463.352a1 1 0 0 0 -.828.743 8.892 8.892 0 0 1 -.975 2.356 1 1 0 0 0 .06 1.111l1.492 1.99-1.6 1.6-1.986-1.491a1 1 0 0 0 -1.111-.06 8.892 8.892 0 0 1 -2.356.975 1 1 0 0 0 -.743.828l-.357 2.463h-2.266l-.352-2.463a1 1 0 0 0 -.743-.828 8.892 8.892 0 0 1 -2.356-.975 1 1 0 0 0 -1.111.06l-1.99 1.492-1.6-1.6 1.492-1.99a1 1 0 0 0 .06-1.111 8.892 8.892 0 0 1 -.975-2.356 1 1 0 0 0 -.828-.743l-2.464-.353v-2.266l2.463-.352a1 1 0 0 0 .828-.743 8.892 8.892 0 0 1 .975-2.356 1 1 0 0 0 -.06-1.111l-1.492-1.99 1.6-1.6 1.99 1.492a1 1 0 0 0 1.111.06 8.892 8.892 0 0 1 2.356-.975 1 1 0 0 0 .743-.828l.353-2.464h2.266l.352 2.463a1 1 0 0 0 .743.828 8.892 8.892 0 0 1 2.356.975 1 1 0 0 0 1.111-.06l1.99-1.492 1.6 1.6-1.492 1.99a1 1 0 0 0 -.06 1.111 8.892 8.892 0 0 1 .975 2.356 1 1 0 0 0 .828.743l2.464.353z"/>
        <path style="fill:url(#grad1);" d="m22 42a6 6 0 1 0 6 6 6.006 6.006 0 0 0 -6-6zm0 10a4 4 0 1 1 4-4 4 4 0 0 1 -4 4z"/>
        <path style="fill:url(#grad1);" d="m4 47h2v2h-2z"/>
        <path style="fill:url(#grad1);" d="m4 43h2v2h-2z"/>
        <path style="fill:url(#grad1);" d="m4 51h2v2h-2z"/>
        <path style="fill:url(#grad1);" d="m38 56h2v2h-2z"/>
        <path style="fill:url(#grad1);" d="m42 56h2v2h-2z"/>
        <path style="fill:url(#grad1);" d="m46 56h2v2h-2z"/>
        <path style="fill:url(#grad1);" d="m50 56h2v2h-2z"/>
    </g>
</svg>