<?xml version="1.0"?>
<svg xmlns="http://www.w3.org/2000/svg" xmlns:xlink="http://www.w3.org/1999/xlink" viewBox="0 0 64 64" width="512" height="512">
    <defs>
        <linearGradient id="New_Gradient_Swatch_3" x1="100%" y1="0%" x2="0%" y2="0%">
            <stop offset="0%" style="stop-color:#e561f0;stop-opacity:1" />
            <stop offset="100%" style="stop-color:#00e7ff;stop-opacity:1" />
		</linearGradient>
    </defs>
    <g id="Config">
        <path d="M59,10H47.874L42.607,4.733a1,1,0,0,0-1.414,0L37.711,8.215c-.239-.107-.476-.2-.711-.294V3a1,1,0,0,0-1-1H28a1,1,0,0,0-1,1V7.921c-.235.09-.472.187-.711.294L22.807,4.733a1.029,1.029,0,0,0-1.414,0L16.126,10H5a3,3,0,0,0-3,3V47a3,3,0,0,0,3,3H25v4H21a3,3,0,0,0-3,3v4a1,1,0,0,0,1,1H45a1,1,0,0,0,1-1V57a3,3,0,0,0-3-3H39V50H59a3,3,0,0,0,3-3V13A3,3,0,0,0,59,10ZM22.1,6.854l3.273,3.273a1,1,0,0,0,1.154.187A12.323,12.323,0,0,1,28.3,9.583,1,1,0,0,0,29,8.63V4h6V8.63a1,1,0,0,0,.7.953,12.323,12.323,0,0,1,1.776.731,1,1,0,0,0,1.154-.187L41.9,6.854,46.146,11.1l-2.193,2.193h0l-1.08,1.08a1,1,0,0,0-.187,1.154,12.328,12.328,0,0,1,.731,1.776,1,1,0,0,0,.953.7H49v6H39.421a8,8,0,1,0-14.842,0H15V18h4.63a1,1,0,0,0,.953-.7,12.328,12.328,0,0,1,.731-1.776,1,1,0,0,0-.187-1.154l-1.08-1.08h0L17.854,11.1ZM19.215,15.29c-.107.239-.2.475-.294.71H14a1,1,0,0,0-1,1v7H10a1,1,0,0,0,0,2H54a1,1,0,0,0,0-2H51V17a1,1,0,0,0-1-1H45.079c-.09-.235-.187-.471-.294-.71l.29-.29H57V39H7V15H18.925ZM26,21a6,6,0,0,1,12,0,5.9,5.9,0,0,1-.824,3H26.824A5.9,5.9,0,0,1,26,21ZM5,12H15.926l1,1H6a1,1,0,0,0-1,1V40a1,1,0,0,0,1,1H58a1,1,0,0,0,1-1V14a1,1,0,0,0-1-1H47.074l1-1H59a1,1,0,0,1,1,1V42H4V13A1,1,0,0,1,5,12ZM43,56a1,1,0,0,1,1,1v3H20V57a1,1,0,0,1,1-1Zm-6-2H27V50H37Zm22-6H5a1,1,0,0,1-1-1V44H60v3A1,1,0,0,1,59,48Z" style="fill:url(#New_Gradient_Swatch_3)"/>
        <path d="M55,45H53a1,1,0,0,0,0,2h2a1,1,0,0,0,0-2Z" style="fill:url(#New_Gradient_Swatch_3-2)"/>
        <path d="M10,31h5.184a2.982,2.982,0,0,0,5.632,0H54a1,1,0,0,0,0-2H20.816a2.982,2.982,0,0,0-5.632,0H10a1,1,0,0,0,0,2Zm8-2a1,1,0,1,1-1,1A1,1,0,0,1,18,29Z" style="fill:url(#New_Gradient_Swatch_3)"/>
        <path d="M10,36H22.184a2.982,2.982,0,0,0,5.632,0H54a1,1,0,0,0,0-2H27.816a2.982,2.982,0,0,0-5.632,0H10a1,1,0,0,0,0,2Zm15-2a1,1,0,1,1-1,1A1,1,0,0,1,25,34Z" style="fill:url(#New_Gradient_Swatch_3)"/>
    </g>
</svg>
